<svg width="315" height="299" viewBox="0 0 315 299" fill="none" xmlns="http://www.w3.org/2000/svg">
<path d="M125.475 0.964389C111.09 4.16689 96.8494 8.61626 83.4881 15.3363C83.79 27.1225 84.5512 38.41 86.1131 49.8813C80.9156 53.2019 75.4819 56.05 70.6387 59.935C65.7169 63.715 60.69 67.3375 56.2406 71.7738C47.2279 65.7949 37.8711 60.3518 28.2188 55.4725C17.7581 66.7206 7.98 78.8875 0 92.4719C6.01125 102.184 12.285 111.306 19.0575 119.956H19.2412V203.378C19.3987 203.378 19.5519 203.391 19.7006 203.418L70.8356 208.353C72.1348 208.48 73.3465 209.065 74.255 210.002C75.1635 210.939 75.7099 212.169 75.7969 213.471L77.3719 236.046L121.997 239.209L125.068 218.38C125.263 217.074 125.92 215.882 126.92 215.02C127.919 214.157 129.195 213.683 130.515 213.681H184.472C187.202 213.681 189.525 215.676 189.919 218.38L192.99 239.209L237.615 236.033L239.19 213.458C239.28 212.16 239.825 210.935 240.731 210.001C241.637 209.067 242.843 208.483 244.138 208.353L295.273 203.418L295.732 203.378V196.724H295.759V119.969H295.943C302.715 111.306 308.989 102.211 315 92.485C307.02 78.8875 297.229 66.7469 286.768 55.4725C277.056 60.355 267.645 65.8806 258.746 71.7738C254.284 67.3506 249.283 63.7281 244.361 59.9481C239.505 56.0631 234.058 53.2019 228.887 49.8813C230.422 38.41 231.184 27.1225 231.512 15.3363C218.151 8.61626 203.923 4.18001 189.525 0.964389C183.764 10.7777 178.563 20.9088 173.946 31.3094C168.537 30.4504 163.069 30.016 157.592 30.01H157.382C151.909 30.0756 146.462 30.4038 141.028 31.3225C136.408 20.9127 131.202 10.7728 125.436 0.951263L125.475 0.964389ZM84.9975 123.106C89.0989 123.02 93.1761 123.754 96.9902 125.264C100.804 126.774 104.279 129.031 107.21 131.901C110.141 134.771 112.47 138.197 114.06 141.978C115.65 145.76 116.47 149.821 116.471 153.923C116.472 158.025 115.654 162.086 114.065 165.869C112.477 169.651 110.149 173.078 107.219 175.949C104.289 178.821 100.816 181.078 97.0024 182.59C93.1889 184.102 89.112 184.838 85.0106 184.754C76.9457 184.587 69.2672 181.267 63.6224 175.504C57.9776 169.742 54.8161 161.996 54.8161 153.93C54.8161 145.863 57.9776 138.118 63.6224 132.355C69.2672 126.593 76.9457 123.272 85.0106 123.106M230.042 123.106C234.143 123.022 238.22 123.757 242.034 125.269C245.847 126.781 249.321 129.039 252.251 131.91C255.18 134.781 257.508 138.209 259.096 141.991C260.685 145.773 261.503 149.834 261.502 153.936C261.501 158.039 260.682 162.1 259.091 165.881C257.501 169.663 255.172 173.089 252.241 175.959C249.31 178.829 245.836 181.085 242.021 182.595C238.207 184.105 234.13 184.839 230.029 184.754C221.964 184.587 214.285 181.267 208.641 175.504C202.996 169.742 199.834 161.996 199.834 153.93C199.834 145.863 202.996 138.118 208.641 132.355C214.285 126.593 221.964 123.272 230.029 123.106M87.9638 135.312C82.5369 135.312 77.3324 137.468 73.495 141.305C69.6577 145.142 67.5019 150.347 67.5019 155.774C67.5019 161.201 69.6577 166.405 73.495 170.243C77.3324 174.08 82.5369 176.236 87.9638 176.236C93.3906 176.236 98.5951 174.08 102.432 170.243C106.27 166.405 108.426 161.201 108.426 155.774C108.426 150.347 106.27 145.142 102.432 141.305C98.5951 137.468 93.3906 135.312 87.9638 135.312ZM227.062 135.312C224.377 135.312 221.718 135.841 219.237 136.868C216.756 137.896 214.502 139.402 212.603 141.301C210.704 143.2 209.198 145.454 208.17 147.935C207.143 150.416 206.614 153.075 206.614 155.761C206.614 158.446 207.143 161.105 208.17 163.586C209.198 166.067 210.704 168.321 212.603 170.22C214.502 172.119 216.756 173.625 219.237 174.653C221.718 175.68 224.377 176.209 227.062 176.209C232.486 176.209 237.687 174.055 241.522 170.22C245.357 166.385 247.511 161.184 247.511 155.761C247.511 150.337 245.357 145.136 241.522 141.301C237.687 137.466 232.486 135.312 227.062 135.312ZM157.5 141.258C162.973 141.258 167.436 145.3 167.436 150.274V178.651C167.436 183.638 162.986 187.668 157.5 187.668C152.014 187.668 147.578 183.625 147.578 178.651V150.288C147.578 145.313 152.027 141.271 157.5 141.271M19.1625 214.429C19.1756 219.378 19.2281 224.798 19.2281 225.861C19.2281 274.45 80.85 297.786 157.395 298.049H157.579C234.137 297.786 295.732 274.45 295.732 225.861C295.732 224.759 295.798 219.364 295.824 214.443L249.861 218.879L248.273 241.572C248.181 242.899 247.612 244.148 246.671 245.089C245.73 246.03 244.481 246.599 243.154 246.691L188.291 250.576C186.969 250.578 185.69 250.104 184.688 249.241C183.685 248.379 183.026 247.185 182.831 245.877L179.708 224.693H135.266L132.142 245.877C131.938 247.25 131.223 248.495 130.14 249.364C129.057 250.232 127.687 250.66 126.302 250.563L71.82 246.678C70.4927 246.586 69.2434 246.017 68.3027 245.076C67.3619 244.135 66.7931 242.886 66.7012 241.559L65.1262 218.866L19.1362 214.443L19.1625 214.429Z" fill="#DDDDDD"/>
</svg>
