<svg width="37" height="42" viewBox="0 0 37 42" fill="none" xmlns="http://www.w3.org/2000/svg">
<path d="M18.7703 5.35325C21.6195 5.35037 24.3933 6.25498 26.6773 7.93198L23.9075 10.6606L37 14.1096L33.4892 1.22055L30.5532 4.1113C27.2226 1.44754 23.0613 -0.00443845 18.7703 1.01921e-05C8.40415 0.00459868 0.00155345 8.27459 0 18.484C0 24.6983 3.12554 30.18 7.89772 33.5312L7.89772 26.0565C6.29885 23.8445 5.43886 21.1974 5.43706 18.4825C5.44118 15.0016 6.84741 11.6645 9.34727 9.20317C11.8471 6.74185 15.2365 5.3573 18.7719 5.35325H18.7703ZM9.44962 42L28.091 42L28.091 16.1897L9.44962 16.1897L9.44962 42Z" fill="#F0EEEE"/>
</svg>
